<svg width="70" height="70" viewBox="0 0 70 70" fill="none" xmlns="http://www.w3.org/2000/svg">
<circle cx="35" cy="35" r="35" fill="white" fill-opacity="0.5"/>
<path d="M38.2832 39.5928C39.1605 38.7712 40.5876 38.7712 41.4092 39.5928C41.847 39.9765 42.0664 40.5246 42.0664 41.1279V46.3896C42.8895 45.8976 43.985 46.0065 44.6982 46.7197C44.7539 46.7754 44.7545 46.775 44.8086 46.8291L44.918 46.7197C45.7952 45.8981 47.2223 45.8981 48.0439 46.7197L48.1533 46.8291C48.209 46.7734 48.2096 46.7738 48.2637 46.7197C49.0853 45.8966 50.5111 45.8967 51.3389 46.7197C51.7767 47.1033 51.997 47.6506 51.9971 48.2539V52.0918H50.9004V48.2539C50.9003 47.9801 50.7899 47.7059 50.5703 47.4863C50.1866 47.0487 49.473 47.0486 49.0352 47.4863C48.8155 47.7059 48.7062 47.9802 48.7061 48.2539V49.8994H47.6084V48.2539C47.6083 47.9801 47.4989 47.7059 47.2793 47.4863C46.8956 47.0487 46.182 47.0486 45.7441 47.4863C45.5245 47.7059 45.4151 47.9802 45.415 48.2539V49.8994H44.3174V48.2539C44.3173 47.9801 44.2079 47.7059 43.9883 47.4863C43.6046 47.0487 42.891 47.0486 42.4531 47.4863C42.2335 47.7059 42.1241 47.9802 42.124 48.2539V49.8994H41.0264V41.1279C41.0264 40.8541 40.9168 40.58 40.6973 40.3604C40.3136 39.9224 39.6 39.9224 39.1621 40.3604C38.9426 40.58 38.833 40.8542 38.833 41.1279V52.0928H37.7354V41.1279C37.7354 40.5246 37.9537 39.9765 38.2832 39.5928ZM26.7705 45.5078C27.0444 45.5079 27.3184 45.6182 27.5381 45.8379C27.7576 46.0576 27.8672 46.3317 27.8672 46.6055V47.7021H31.1572C31.431 47.7022 31.7052 47.8126 31.9248 48.0322C32.1441 48.2517 32.2538 48.5253 32.2539 48.7988V49.8965H35.5439C35.8191 49.8966 36.0925 50.0063 36.3105 50.2256C36.5302 50.4452 36.6406 50.7194 36.6406 50.9932V52.0908H35.5439V50.9932H32.2539V52.0908H31.1572V50.9932H27.8672V52.0908H26.7705V50.9932H23.4805V52.0908H22.3838V46.6055C22.3838 46.3317 22.4934 46.0575 22.7129 45.8379C22.9325 45.6183 23.2067 45.5079 23.4805 45.5078H26.7705ZM23.4824 49.8965H26.7715V48.7988H23.4824V49.8965ZM27.8691 49.8965H31.1582V48.7988H27.8691V49.8965ZM23.4824 47.7041H26.7715V46.6064H23.4824V47.7041ZM25.127 38.9316C26.6618 38.9316 27.8691 40.139 27.8691 41.6738C27.8691 43.2087 26.6618 44.416 25.127 44.416C23.5921 44.416 22.3848 43.2087 22.3848 41.6738C22.3848 40.139 23.5921 38.9316 25.127 38.9316ZM25.127 40.0293C24.1955 40.0293 23.4825 40.7424 23.4824 41.6738C23.4824 42.6053 24.1955 43.3183 25.127 43.3184C26.0584 43.3184 26.7715 42.6053 26.7715 41.6738C26.7715 40.7424 26.0584 40.0293 25.127 40.0293ZM51.9893 42.2227H43.2178V41.125H50.8936V22.4834H19.0957V41.125H21.2891V42.2227H18V17H51.9893V42.2227ZM36.6396 42.2217H28.9639V41.125H36.6396V42.2217ZM38.2852 37.833H37.1885V36.7363H38.2852V37.833ZM40.4795 37.833H39.3828V36.7363H40.4795V37.833ZM42.6709 37.833H41.5742V36.7363H42.6709V37.833ZM28.416 27.9678C29.0194 27.9678 29.5675 28.1871 29.9512 28.625C30.389 29.0087 30.6084 29.5568 30.6084 30.1602C30.6083 30.7076 30.3887 31.2566 29.9512 31.6943C29.5675 32.1322 29.0194 32.3525 28.416 32.3525H26.2236V35.6416H25.126V27.9678H28.416ZM35.543 27.9678C36.1464 27.9678 36.6944 28.1871 37.0781 28.625C37.5174 29.0087 37.7369 29.5568 37.7354 30.1602C37.7353 30.7076 37.5157 31.2565 37.0781 31.6943C36.6944 32.1322 36.1464 32.3525 35.543 32.3525H33.3506V35.6416H32.2529V27.9678H35.543ZM42.6719 27.9678C43.2753 27.9678 43.8233 28.1871 44.207 28.625C44.6449 29.0087 44.8643 29.5568 44.8643 30.1602H43.7676C43.7676 29.8862 43.6572 29.6123 43.4375 29.3926C43.2179 29.1731 42.9445 29.0626 42.6709 29.0625H41.5732C41.2994 29.0625 41.0253 29.1729 40.8057 29.3926C40.5861 29.6123 40.4766 29.8864 40.4766 30.1602V33.4492C40.4766 33.723 40.5861 33.9971 40.8057 34.2168C41.0253 34.4365 41.2995 34.5468 41.5732 34.5469H42.6709C42.9446 34.5468 43.2179 34.4363 43.4375 34.2168C43.6572 33.9971 43.7676 33.7231 43.7676 33.4492H44.8643C44.8643 34.0526 44.5907 34.5465 44.207 34.9844C43.8233 35.4223 43.2753 35.6416 42.6719 35.6416H41.5752C40.9718 35.6416 40.4779 35.3681 40.04 34.9844C39.6022 34.6007 39.3828 34.0526 39.3828 33.4492V30.1602C39.3828 29.5568 39.6021 29.0087 40.04 28.625C40.4237 28.1871 40.9718 27.9678 41.5752 27.9678H42.6719ZM26.2236 31.2568H28.416C28.6899 31.2568 28.9639 31.1474 29.1836 30.9277C29.4033 30.7081 29.5127 30.434 29.5127 30.1602C29.5127 29.8863 29.4032 29.6123 29.1836 29.3926C28.9639 29.1729 28.6898 29.0625 28.416 29.0625H26.2236V31.2568ZM33.3506 31.2568H35.543C35.8168 31.2568 36.0909 31.1474 36.3105 30.9277C36.5303 30.708 36.6396 30.4335 36.6396 30.1611C36.6395 29.8875 36.5299 29.6141 36.3105 29.3945C36.0908 29.1748 35.8168 29.0645 35.543 29.0645H33.3506V31.2568ZM26.2236 25.7754H25.126V24.6777H26.2236V25.7754ZM42.6699 25.7754H27.3193V24.6777H42.6699V25.7754ZM44.8643 25.7754H43.7666V24.6777H44.8643V25.7754ZM19.0957 21.3877H50.8936V18.0986H19.0957V21.3877ZM21.8369 20.293H20.7402V19.1953H21.8369V20.293ZM24.0312 20.293H22.9346V19.1953H24.0312V20.293ZM26.2236 20.293H25.126V19.1953H26.2236V20.293ZM49.249 20.293H27.3193V19.1953H49.249V20.293Z" fill="white"/>
</svg>
