<svg width="72" height="72" viewBox="0 0 72 72" fill="none" xmlns="http://www.w3.org/2000/svg">
<circle cx="36" cy="36" r="36" fill="url(#paint0_linear_62_2893)"/>
<path d="M44.6055 34.0157H51.952V35.7007H58.8117L58.5904 34.4478C58.5461 34.2317 57.661 29.0903 54.1648 26.8005V20.3197V20.1901C54.032 19.1964 52.0847 14.2278 48.6328 14.2278C45.3136 14.2278 42.8352 19.2828 42.5254 19.8445L42.4369 20.0605V26.7573C38.9407 29.0471 38.0556 34.1885 38.0113 34.4046L37.79 35.6575H44.6497V34.0157H44.6055ZM54.1205 29.6952C55.1384 30.905 55.758 32.4603 56.0678 33.5405H54.1205V29.6952ZM44.6055 20.5357C45.4906 18.7211 47.2608 16.3881 48.5885 16.3881C50.2702 16.3881 51.7307 19.5852 51.952 20.4061V31.8555H49.2524V26.4116H47.8804V31.8555H44.6055V20.5357ZM42.3927 33.5405H40.4454C40.7552 32.4603 41.3748 30.905 42.3927 29.6952V33.5405ZM50.1817 18.9804H46.8625V23.6465H50.1817V18.9804ZM49.7392 23.2145H47.3051V19.4124H49.7392V23.2145ZM47.6149 46.0267H49.5179V40.8421H47.6149V46.0267ZM43.6761 43.4344H45.5791V38.2498H43.6761V43.4344ZM51.6864 43.4344H53.5895V38.2498H51.6864V43.4344ZM58.9887 47.15H58.0151V43.132C59.6525 41.5766 66.1582 34.923 66.5122 26.3684C66.6893 22.1775 65.0518 18.0731 61.8653 14.7895C58.3249 11.1603 53.3239 9 48.5 9C39.2947 9 31.1959 16.172 31.1959 24.3378C31.1959 32.2875 33.0104 35.7007 36.3738 39.1571C36.9492 39.7188 37.436 40.3668 37.8785 41.0149C38.4539 41.9222 38.8964 42.6999 39.1177 43.0888V47.1068H38.2326C36.6394 47.1068 35.3117 48.403 35.3117 49.9584V51.773C35.3117 53.242 36.4623 54.4517 37.9228 54.6245C37.8785 54.8405 37.8343 55.0998 37.8343 55.3158V56.7416C37.8343 58.2537 39.0734 59.4635 40.6224 59.4635H43.322C43.145 59.8091 43.0565 60.2412 43.0565 60.63V61.2781C43.0565 62.7903 44.2957 64 45.8446 64H52.2618C53.8107 64 55.0499 62.7903 55.0499 61.2781V60.63C55.0499 60.198 54.9614 59.8091 54.7844 59.4635H56.7316C58.2806 59.4635 59.5198 58.2537 59.5198 56.7416V55.3158C59.5198 55.0566 59.4755 54.8405 59.4313 54.6245C60.8917 54.4949 62.0424 53.242 62.0424 51.773V49.9584C61.9096 48.403 60.5819 47.15 58.9887 47.15ZM37.967 37.6881C34.9134 34.5774 33.4087 31.6394 33.4087 24.3378C33.4087 17.2954 40.4454 11.1603 48.5 11.1603C52.6601 11.1603 57.1742 13.1045 60.2721 16.3017C63.0603 19.11 64.4765 22.6528 64.2994 26.282C63.9011 34.9662 56.2448 41.7926 56.1563 41.8358L55.8023 42.1383V46.3724H41.2863V42.5703L41.1535 42.3543C41.1092 42.3111 40.5782 41.231 39.693 39.8916C39.2062 39.1139 38.5866 38.3794 37.967 37.6881ZM53.0141 61.3213C53.0141 61.7965 52.6158 62.1422 52.1733 62.1422H45.7119C45.225 62.1422 44.871 61.7533 44.871 61.3213V60.6732C44.871 60.198 45.2693 59.8523 45.7119 59.8523H52.129C52.6158 59.8523 52.9699 60.2412 52.9699 60.6732V61.3213H53.0141ZM57.484 56.7848C57.484 57.26 57.0857 57.6057 56.6431 57.6057H40.5339C40.0471 57.6057 39.693 57.2168 39.693 56.7848V55.359C39.693 55.0566 39.8258 54.8405 40.0471 54.6677H57.0857C57.307 54.7973 57.4397 55.0566 57.4397 55.359V56.7848H57.484ZM59.6968 51.8162C59.6968 52.205 59.387 52.5075 58.9887 52.5075H38.1883C37.79 52.5075 37.4802 52.205 37.4802 51.8162V50.0016C37.4802 49.6127 37.79 49.3103 38.1883 49.3103H58.9887C59.387 49.3103 59.6968 49.6127 59.6968 50.0016V51.8162ZM32.3023 16.5609L29.1158 13.839L27.6554 15.4808L30.8418 18.2027L32.3023 16.5609ZM27.3013 37.8178L28.7618 39.4595L31.9482 36.7376L30.4878 35.0958L27.3013 37.8178ZM28.8503 25.3315H25V27.4918H28.8503V25.3315ZM68.1497 25.3315V27.4918H72V25.3315H68.1497ZM65.0075 36.7376L68.194 39.4595L69.6544 37.8178L66.468 35.0958L65.0075 36.7376ZM69.3446 15.4808L67.8842 13.839L64.6977 16.5609L66.1582 18.2027L69.3446 15.4808Z" fill="white"/>
<defs>
<linearGradient id="paint0_linear_62_2893" x1="1.15629e-06" y1="-3.5" x2="36" y2="72" gradientUnits="userSpaceOnUse">
<stop stop-color="#FD1FFE"/>
<stop offset="0.887236" stop-color="#FD1FFE" stop-opacity="0"/>
</linearGradient>
</defs>
</svg>
