<svg width="79" height="72" viewBox="0 0 79 72" fill="none" xmlns="http://www.w3.org/2000/svg">
<circle cx="36" cy="36" r="36" fill="url(#paint0_linear_62_2884)"/>
<path d="M20.4315 44.9674H35.4375V43.5008H20.4315V44.9674ZM59.979 50.7325C61.9363 50.7325 63.7431 49.9739 65.0479 48.7602C66.6038 47.3442 67.5573 45.3214 67.5573 43.0963C67.5573 38.8989 64.1446 35.46 59.979 35.46C55.8135 35.46 52.4007 38.8989 52.4007 43.0963C52.4007 45.3214 53.3543 47.3442 54.9101 48.7602C56.2652 50.0245 58.0217 50.7325 59.979 50.7325ZM59.979 36.3197C63.6929 36.3197 66.7041 39.354 66.7041 43.0963C66.7041 45.4731 65.4996 47.5465 63.6427 48.7602C62.5888 49.4682 61.3341 49.8728 59.979 49.8728C58.624 49.8728 57.3693 49.4682 56.3153 48.7602C54.5086 47.5465 53.3041 45.4731 53.3041 43.0963C53.2539 39.354 56.2652 36.3197 59.979 36.3197ZM46.2277 57.509H49.2891V54.4241H46.2277V57.509ZM44.2704 15.0294H47.3318V11.9445H44.2704V15.0294ZM59.5775 20.9967H73.0779V17.8108H59.5775V20.9967ZM59.5775 25.8516H73.0779V22.6656H59.5775V25.8516ZM27.4577 13.5122H20.0802V16.3442H27.4577V13.5122ZM29.9169 18.0131H20.0802V20.845H29.9169V18.0131ZM23.7438 34.9543V42.6411H24.9985V34.9543H23.7438ZM28.3109 33.3866V42.6917H29.5655V33.3866H28.3109ZM33.7311 30.2007V42.6411H34.9858V30.2007H33.7311ZM19.779 32.5775L20.4315 33.6395L35.4876 24.1827L34.8352 23.1207L19.779 32.5775ZM75.4367 8H15.0112C13.3551 8 12 9.36542 12 11.0343V56.7504C12 59.0767 13.8569 60.8972 16.1154 60.8972H38.8L35.7386 67.1175L35.839 67.168H32.0247V68.6852H59.4772V67.168H56.2652L56.3656 67.1175L53.3041 60.8972H67.4569L72.4757 70H77.7955V65.398L74.9348 60.9478H75.7378C77.5446 60.9478 79 59.4812 79 57.6607V11.5905C79 9.5677 77.394 8 75.4367 8ZM55.4622 67.168H36.7423L39.8038 60.8972H52.4007L55.4622 67.168ZM76.7918 65.7015V68.9886H73.0779L68.6112 60.8972L68.2097 60.1387V56.447H70.8697L72.9274 59.6329L73.7303 60.8972L76.7918 65.7015ZM77.7453 57.6101C77.7453 58.7227 76.8419 59.6329 75.7378 59.6329H74.1318L71.4217 55.4356H67.206V59.6329H16.1656C14.5596 59.6329 13.2547 58.3181 13.2547 56.6998V51.7439H50.6944C53.003 54.2724 56.3154 55.8401 59.979 55.8401C63.6427 55.8401 66.9551 54.2724 69.2637 51.7439H77.6951V57.6101H77.7453ZM49.5903 48.7602C48.6869 47.0914 48.185 45.1191 48.185 43.0963C48.185 36.522 53.5049 31.1615 60.0292 31.1615C66.5536 31.1615 71.8734 36.522 71.8734 43.0963C71.8734 45.1191 71.3715 47.0914 70.4682 48.7602C69.8659 49.8728 69.0629 50.8842 68.1596 51.7945C66.0517 53.8173 63.191 55.031 60.0794 55.031C56.9678 55.031 54.1071 53.8173 51.9993 51.7945C50.9955 50.9347 50.1925 49.9233 49.5903 48.7602ZM77.7453 48.7602H71.3715C72.2247 47.0408 72.6764 45.1191 72.6764 43.0963C72.6764 36.0669 67.0053 30.3018 59.979 30.3018C53.003 30.3018 47.2816 36.0163 47.2816 43.0963C47.2816 45.1191 47.7333 47.0408 48.5865 48.7602H13.2547V11.0343C13.2547 10.0734 14.0577 9.26427 15.0112 9.26427H75.4367C76.6914 9.26427 77.6951 10.2757 77.6951 11.54V48.7602H77.7453Z" fill="white"/>
<defs>
<linearGradient id="paint0_linear_62_2884" x1="1.15629e-06" y1="-3.5" x2="36" y2="72" gradientUnits="userSpaceOnUse">
<stop stop-color="#FD1FFE"/>
<stop offset="0.887236" stop-color="#FD1FFE" stop-opacity="0"/>
</linearGradient>
</defs>
</svg>
