<svg width="73" height="72" viewBox="0 0 73 72" fill="none" xmlns="http://www.w3.org/2000/svg">
<circle cx="36" cy="36" r="36" fill="url(#paint0_linear_62_2866)"/>
<path d="M71.5219 20.0241H72.5777V11H62.9487V12.0542H70.7195L52.7285 30.3133H32.7526L17.2534 43.3434L17.9291 44.1446L33.1327 31.3253H53.1931L71.5641 12.6867V20.0241H71.5219ZM71.4374 12.0542H71.5219V12.1386L71.4374 12.0542ZM72.7466 31.494C64.3002 25.9277 56.7406 31.4518 56.6983 31.494L56.4872 31.6627V64.0482L56.6983 64.2169C59.2323 66.2831 61.8929 67 64.2579 67C68.988 67 72.7466 64.3012 72.7888 64.259L73 64.0904V31.6627L72.7466 31.494ZM71.902 63.5422C70.5928 64.4277 63.7934 68.5602 57.5008 63.5843V62.4458C58.81 62.8253 61.7662 63.5422 65.2293 63.5422C67.3409 63.5422 69.6637 63.2892 71.902 62.488V63.5422ZM71.902 61.3494C65.9472 63.5843 59.1056 61.8133 57.5008 61.3072V58.4819C58.81 58.8614 61.7662 59.5783 65.2293 59.5783C67.3409 59.5783 69.6637 59.3253 71.902 58.5241V61.3494ZM71.902 57.4277C65.9472 59.6626 59.1056 57.8916 57.5008 57.3855V54.5602C58.81 54.9398 61.7662 55.6566 65.2293 55.6566C67.3409 55.6566 69.6637 55.4036 71.902 54.6024V57.4277ZM71.902 53.506C65.9472 55.741 59.1056 53.9699 57.5008 53.4639V50.6386C58.81 51.0181 61.7662 51.7349 65.2293 51.7349C67.3409 51.7349 69.6637 51.4819 71.902 50.6807V53.506ZM71.902 49.5843C65.9472 51.8193 59.1056 50.0482 57.5008 49.5422V46.7169C58.81 47.0964 61.7662 47.8133 65.2293 47.8133C67.3409 47.8133 69.6637 47.5602 71.902 46.759V49.5843ZM71.902 45.6626C65.9472 47.8976 59.1056 46.1265 57.5008 45.6205V42.8373C58.81 43.2169 61.7662 43.9337 65.2293 43.9337C67.3409 43.9337 69.6637 43.6807 71.902 42.8795V45.6626ZM71.902 41.741C65.9472 43.9759 59.1056 42.2048 57.5008 41.6988V38.8735C58.81 39.253 61.7662 39.9699 65.2293 39.9699C67.3409 39.9699 69.6637 39.7169 71.902 38.9157V41.741ZM71.902 37.8614C65.9472 40.0964 59.1056 38.3253 57.5008 37.8193V34.994C58.81 35.3735 61.7662 36.0904 65.2293 36.0904C67.3409 36.0904 69.6637 35.8373 71.902 35.0361V37.8614ZM71.902 33.9398C65.9472 36.1747 59.1056 34.4036 57.5008 33.8976V32.2108C58.7255 31.4096 64.8492 27.7831 71.902 32.2108V33.9398ZM32.8371 53.7169L32.7949 53.6325V50.0482L32.5415 49.8795C24.5173 44.9458 17.2956 49.8373 17.2112 49.8795L17 50.0482V53.6747V53.7169V57.5964V57.6386V61.1807V61.2229V64.2169L17.2534 64.3855C20.2519 66.2831 22.9125 66.9157 25.1931 66.9157C29.7542 66.9157 32.5837 64.3855 32.6259 64.3434L32.7949 64.1747V61.2229H32.8371L32.7949 61.1385V57.6386H32.8371L32.7949 57.5542L32.8371 53.7169ZM31.7813 63.7108C30.7677 64.512 25.5309 68.2229 18.0558 63.6687V61.5602C19.4917 61.9398 22.2368 62.5723 25.4465 62.5723C27.4736 62.5723 29.6275 62.3193 31.7813 61.6446V63.7108ZM31.7813 60.506C26.2489 62.4458 20.083 61.012 18.0558 60.4639V57.9759C19.4917 58.3554 22.2368 58.988 25.4465 58.988C27.4736 58.988 29.6275 58.7349 31.7813 58.0602V60.506ZM31.7813 56.9217C26.2489 58.8614 20.083 57.4277 18.0558 56.8795V54.0542C19.4917 54.4337 22.2368 55.0663 25.4465 55.0663C27.4736 55.0663 29.6275 54.8133 31.7813 54.1386V56.9217ZM31.7813 53C26.2489 54.9398 20.083 53.506 18.0558 52.9578V50.5964C19.2805 49.8373 25.1086 46.6747 31.7813 50.5964V53ZM36.9336 42.2892L36.6802 42.4578V64.3012L36.9336 64.4699C39.721 66.1988 42.3816 66.747 44.6621 66.747C49.2232 66.747 52.3907 64.4699 52.4329 64.4277L52.6441 64.259V42.4157L52.3484 42.2892C43.9442 38.1145 37.2293 42.1205 36.9336 42.2892ZM51.5882 63.7108C50.4057 64.4699 44.6621 67.8012 37.736 63.7108V61.8554C39.1297 62.2349 41.9593 62.8675 45.1689 62.8675C47.1961 62.8675 49.3922 62.6145 51.546 61.8976V63.7108H51.5882ZM51.5882 60.8012C46.0136 62.7831 39.721 61.3072 37.736 60.759V57.9337C39.1297 58.3133 41.9593 58.9458 45.1689 58.9458C47.1961 58.9458 49.3922 58.6928 51.546 57.9759V60.8012H51.5882ZM51.5882 56.8795C46.0136 58.8614 39.721 57.3855 37.736 56.8373V54.012C39.1297 54.3916 41.9593 55.0241 45.1689 55.0241C47.1961 55.0241 49.3922 54.7711 51.546 54.0542V56.8795H51.5882ZM51.5882 52.9578C46.0136 54.9398 39.721 53.4639 37.736 52.9157V50.0904C39.1297 50.4699 41.9593 51.1024 45.1689 51.1024C47.1961 51.1024 49.3922 50.8494 51.546 50.1325V52.9578H51.5882ZM51.5882 49.0361C46.0136 51.0181 39.721 49.5422 37.736 48.994V46.506C39.1297 46.8855 41.9593 47.5181 45.1689 47.5181C47.1961 47.5181 49.3922 47.2651 51.546 46.5482V49.0361H51.5882ZM51.5882 45.494C46.0136 47.4759 39.721 46 37.736 45.4518V43.0904C38.9608 42.4157 44.7044 39.8434 51.5882 43.0904V45.494Z" fill="white"/>
<defs>
<linearGradient id="paint0_linear_62_2866" x1="1.15629e-06" y1="-3.5" x2="36" y2="72" gradientUnits="userSpaceOnUse">
<stop stop-color="#FD1FFE"/>
<stop offset="0.887236" stop-color="#FD1FFE" stop-opacity="0"/>
</linearGradient>
</defs>
</svg>
