<svg width="72" height="73" viewBox="0 0 72 73" fill="none" xmlns="http://www.w3.org/2000/svg">
<circle cx="36" cy="36" r="36" fill="url(#paint0_linear_62_2875)"/>
<path d="M71.4815 39.1344C71.4272 39.0237 71.3188 38.8577 71.156 38.8577L67.8473 37.9723C67.7389 37.6957 67.6846 37.4743 67.5761 37.1976L69.4203 34.0988C69.5288 33.9881 69.5288 33.8221 69.4203 33.6561C67.9558 30.5573 65.0811 29.1739 64.9726 29.1186C64.8641 29.0632 64.7014 29.0632 64.5386 29.1186L61.6096 30.8893C61.3927 30.7787 61.1215 30.668 60.8503 30.5573L59.9824 27.0711C59.9282 26.9051 59.8197 26.7945 59.7112 26.7391C56.511 25.6324 53.582 26.6838 53.4193 26.7391C53.3108 26.7945 53.1481 26.9051 53.1481 27.0711L52.2802 30.4466C52.009 30.5573 51.792 30.6126 51.5208 30.7233L48.4834 28.8419C48.3749 28.7866 48.2122 28.7312 48.0494 28.8419C45.0119 30.336 43.6559 33.2688 43.6017 33.3794C43.5474 33.4901 43.5474 33.6561 43.6017 33.8221L45.3374 36.8103C45.2289 37.0316 45.1204 37.3083 45.0119 37.5296L41.5948 38.3597C41.432 38.415 41.3236 38.5257 41.2693 38.6364C40.1845 41.9012 41.2151 44.8893 41.2693 45.0553C41.3236 45.2213 41.432 45.2767 41.5948 45.332L44.9035 46.2174C45.0119 46.4941 45.0662 46.7154 45.1747 46.9921L43.3305 50.0909C43.2762 50.2016 43.222 50.3676 43.3305 50.5336C44.795 53.6324 47.6155 55.0158 47.7782 55.0711C47.8867 55.1265 48.0494 55.1265 48.2122 55.0711L51.1412 53.3004C51.3581 53.4111 51.6293 53.5217 51.8463 53.6324L52.7141 57.1739C52.7684 57.3399 52.8769 57.4506 52.9854 57.5059C54.0702 57.8933 55.1007 58.004 56.0771 58.004C56.1856 58.004 56.294 58.004 56.3483 58.004V70.2885C56.3483 71.2292 55.5889 71.9486 54.7211 71.9486H20.712C19.7899 71.9486 19.0848 71.1739 19.0848 70.2885V61.6561H56.4025V60.1067H19.0848V60.2174H18V70.2332C18 71.7826 19.2475 73 20.712 73H54.7211C56.2398 73 57.4331 71.7273 57.4331 70.2332V57.8379C58.5179 57.7273 59.2231 57.4506 59.2773 57.3953C59.44 57.3399 59.5485 57.2292 59.5485 57.0632L60.4164 53.6877C60.6876 53.5771 60.9045 53.5217 61.1757 53.4111L64.2132 55.2925C64.3217 55.4032 64.4844 55.4032 64.6471 55.2925C67.6846 53.7984 69.0406 50.8656 69.0949 50.7549C69.1491 50.6443 69.1491 50.4783 69.0949 50.3123L67.3592 47.3241C67.4677 47.1028 67.5761 46.8261 67.6846 46.6047L71.156 45.7194C71.3188 45.664 71.4272 45.5534 71.4815 45.4427C72.6205 42.2332 71.5357 39.2451 71.4815 39.1344ZM70.7221 45L67.3049 45.83C67.1422 45.8854 67.0337 45.996 66.9795 46.1067C66.8168 46.5494 66.654 46.9368 66.4371 47.3241C66.3286 47.5455 66.3828 47.8221 66.5998 47.9328C66.5998 47.9328 66.6541 47.9328 66.6541 47.9881L68.1728 50.6443C67.8473 51.3083 66.6541 53.2451 64.4844 54.4071L61.4469 52.5257C61.3384 52.415 61.1757 52.415 61.013 52.4704C60.6333 52.6364 60.1994 52.8024 59.8197 52.9684C59.6027 53.0237 59.44 53.3004 59.5485 53.5217V53.5771L58.7891 56.5652C58.5179 56.6206 58.084 56.7866 57.4873 56.8419C57.1619 56.8972 56.7822 56.9526 56.4025 56.9526C55.5347 56.9526 54.5583 56.8972 53.582 56.5652L52.7684 53.0791C52.7141 52.913 52.6057 52.8024 52.4972 52.747C52.0633 52.581 51.6836 52.415 51.3039 52.1937C51.0869 52.083 50.8157 52.1383 50.7072 52.3597C50.7072 52.3597 50.7072 52.415 50.653 52.415L48.0494 53.9644C47.3985 53.6324 45.5001 52.415 44.3611 50.2016L46.2052 47.2688C46.2595 47.1581 46.3137 46.9921 46.2595 46.8261C46.0968 46.4387 45.934 45.996 45.7713 45.6087C45.7171 45.3874 45.4459 45.2213 45.2289 45.332H45.1747L42.2457 44.5573C42.0287 43.8379 41.5405 41.6245 42.2457 39.2451L45.6628 38.415C45.8256 38.3597 45.934 38.249 45.9883 38.1383C46.151 37.6957 46.3137 37.3083 46.5307 36.9209C46.6392 36.6996 46.5849 36.4229 46.368 36.3123C46.3137 36.3123 46.3137 36.3123 46.3137 36.2569L44.795 33.6008C45.1204 32.9368 46.3137 31 48.4834 29.8379L51.5208 31.7194C51.6293 31.7747 51.7921 31.83 51.9548 31.7194C52.3345 31.5534 52.7684 31.3874 53.1481 31.2213C53.365 31.166 53.5278 30.8893 53.4735 30.668C53.4735 30.668 53.4735 30.6126 53.4193 30.6126L54.1787 27.6245C54.8838 27.4032 57.0534 26.9051 59.3858 27.6245L60.2536 31.1107C60.3079 31.2767 60.4163 31.3874 60.5248 31.4427C60.9588 31.6087 61.3384 31.7747 61.7181 31.996C61.9351 32.1067 62.2063 31.996 62.3148 31.83C62.3148 31.83 62.3148 31.7747 62.369 31.7747L64.9726 30.2253C65.6235 30.5573 67.5219 31.7747 68.661 33.9881L66.8168 37.087C66.7083 37.1976 66.7083 37.3636 66.8168 37.5296C66.9795 37.917 67.1422 38.3597 67.3049 38.747C67.3592 38.9684 67.6304 39.1344 67.8473 39.0237H67.9016L70.8306 39.7984C70.8848 40.3518 71.4272 42.6206 70.7221 45ZM56.4568 36.0356C53.2023 36.0356 50.5445 38.747 50.5445 42.0672C50.5445 45.3874 53.2023 48.0988 56.4568 48.0988C59.7112 48.0988 62.369 45.3874 62.369 42.0672C62.369 38.747 59.7112 36.0356 56.4568 36.0356ZM56.4568 47.2134C53.6905 47.2134 51.4666 44.8893 51.4666 42.1225C51.4666 39.3004 53.7447 37.0316 56.4568 37.0316C59.223 37.0316 61.4469 39.3004 61.4469 42.1225C61.4469 44.8893 59.223 47.2134 56.4568 47.2134ZM45.3916 30.7787L51.0327 24.6917L45.3916 18.6601L44.6323 19.4348L49.5682 24.6917L44.6323 30.004L45.3916 30.7787ZM30.5296 18.6601L24.8886 24.6917L30.5296 30.7787L31.3433 30.004L26.4073 24.6917L31.3433 19.4348L30.5296 18.6601ZM34.3265 34.2648L41.8117 15.4506L40.7812 15.0079L33.2959 33.8221L34.3265 34.2648ZM37.7979 8.09091H44.3611V6.43083H37.7979V8.09091ZM42.8423 68.6285V65.253H32.8077V68.6285H42.8423ZM19.1391 13.1265H56.4568V20.0435H57.5416V5.7668C57.5416 4.21739 56.294 3 54.8295 3H20.8205C19.3018 3 18.1085 4.27273 18.1085 5.7668V56.8419H19.1933V13.1265H19.1391ZM19.1391 5.7668C19.1391 4.82609 19.8984 4.10672 20.7663 4.10672H54.7753C55.6974 4.10672 56.4025 4.88142 56.4025 5.7668V11.5771H19.0848V5.7668H19.1391Z" fill="white"/>
<defs>
<linearGradient id="paint0_linear_62_2875" x1="1.15629e-06" y1="-3.5" x2="36" y2="72" gradientUnits="userSpaceOnUse">
<stop stop-color="#FD1FFE"/>
<stop offset="0.887236" stop-color="#FD1FFE" stop-opacity="0"/>
</linearGradient>
</defs>
</svg>
