<svg width="42" height="44" viewBox="0 0 42 44" fill="none" xmlns="http://www.w3.org/2000/svg">
<rect width="41.8571" height="43.053" rx="11.9592" fill="white"/>
<path d="M14.503 14.5596C14.5027 15.1235 14.2777 15.6641 13.8774 16.0626C13.4771 16.4611 12.9344 16.6848 12.3686 16.6845C11.8028 16.6842 11.2603 16.46 10.8604 16.0611C10.4605 15.6622 10.236 15.1213 10.2363 14.5575C10.2366 13.9937 10.4616 13.453 10.8619 13.0545C11.2622 12.656 11.8049 12.4323 12.3707 12.4326C12.9365 12.4329 13.479 12.6572 13.8789 13.056C14.2788 13.4549 14.5033 13.9958 14.503 14.5596ZM14.567 18.2588H10.3003V31.5673H14.567V18.2588ZM21.3083 18.2588H17.063V31.5673H21.2656V24.5835C21.2656 20.693 26.3536 20.3316 26.3536 24.5835V31.5673H30.5669V23.1379C30.5669 16.5793 23.0363 16.8238 21.2656 20.0446L21.3083 18.2588Z" fill="#0F0F10"/>
</svg>
