<svg width="42" height="44" viewBox="0 0 42 44" fill="none" xmlns="http://www.w3.org/2000/svg">
<rect width="41.8571" height="43.053" rx="11.9592" fill="white"/>
<path d="M25.7121 17.7592C26.6038 17.7592 27.3266 17.0364 27.3266 16.1448C27.3266 15.2531 26.6038 14.5303 25.7121 14.5303C24.8205 14.5303 24.0977 15.2531 24.0977 16.1448C24.0977 17.0364 24.8205 17.7592 25.7121 17.7592Z" fill="#0F0F10"/>
<path fill-rule="evenodd" clip-rule="evenodd" d="M16.0253 12.9163C13.6491 12.9163 11.72 14.8454 11.72 17.2216V25.8322C11.72 28.2084 13.6491 30.1375 16.0253 30.1375H24.6359C27.0121 30.1375 28.9412 28.2084 28.9412 25.8322V17.2216C28.9412 14.8454 27.0121 12.9163 24.6359 12.9163H16.0253ZM9.56738 17.2216C9.56738 13.6565 12.4602 10.7637 16.0253 10.7637H24.6359C28.201 10.7637 31.0939 13.6565 31.0939 17.2216V25.8322C31.0939 29.3973 28.201 32.2902 24.6359 32.2902H16.0253C12.4602 32.2902 9.56738 29.3973 9.56738 25.8322V17.2216Z" fill="#0F0F10"/>
<path fill-rule="evenodd" clip-rule="evenodd" d="M20.3304 18.2982C18.5461 18.2982 17.1014 19.7429 17.1014 21.5271C17.1014 23.3114 18.5461 24.7561 20.3304 24.7561C22.1146 24.7561 23.5593 23.3114 23.5593 21.5271C23.5593 19.7429 22.1146 18.2982 20.3304 18.2982ZM14.9487 21.5271C14.9487 18.554 17.3572 16.1455 20.3304 16.1455C23.3035 16.1455 25.712 18.554 25.712 21.5271C25.712 24.5002 23.3035 26.9088 20.3304 26.9088C17.3572 26.9088 14.9487 24.5002 14.9487 21.5271Z" fill="#0F0F10"/>
</svg>
