<svg width="42" height="44" viewBox="0 0 42 44" fill="none" xmlns="http://www.w3.org/2000/svg">
<rect width="41.8571" height="43.053" rx="11.9592" fill="url(#paint0_linear_62_4152)"/>
<path d="M25.7121 17.7592C26.6038 17.7592 27.3266 17.0364 27.3266 16.1448C27.3266 15.2531 26.6038 14.5303 25.7121 14.5303C24.8205 14.5303 24.0977 15.2531 24.0977 16.1448C24.0977 17.0364 24.8205 17.7592 25.7121 17.7592Z" fill="white"/>
<path fill-rule="evenodd" clip-rule="evenodd" d="M16.0253 12.9158C13.6491 12.9158 11.72 14.8449 11.72 17.2211V25.8317C11.72 28.2079 13.6491 30.137 16.0253 30.137H24.6359C27.0121 30.137 28.9412 28.2079 28.9412 25.8317V17.2211C28.9412 14.8449 27.0121 12.9158 24.6359 12.9158H16.0253ZM9.56738 17.2211C9.56738 13.656 12.4602 10.7632 16.0253 10.7632H24.6359C28.201 10.7632 31.0939 13.656 31.0939 17.2211V25.8317C31.0939 29.3968 28.201 32.2897 24.6359 32.2897H16.0253C12.4602 32.2897 9.56738 29.3968 9.56738 25.8317V17.2211Z" fill="white"/>
<path fill-rule="evenodd" clip-rule="evenodd" d="M20.3304 18.2977C18.5461 18.2977 17.1014 19.7424 17.1014 21.5266C17.1014 23.3109 18.5461 24.7556 20.3304 24.7556C22.1146 24.7556 23.5593 23.3109 23.5593 21.5266C23.5593 19.7424 22.1146 18.2977 20.3304 18.2977ZM14.9487 21.5266C14.9487 18.5535 17.3572 16.145 20.3304 16.145C23.3035 16.145 25.712 18.5535 25.712 21.5266C25.712 24.4998 23.3035 26.9083 20.3304 26.9083C17.3572 26.9083 14.9487 24.4998 14.9487 21.5266Z" fill="white"/>
<defs>
<linearGradient id="paint0_linear_62_4152" x1="20.9285" y1="0" x2="20.9285" y2="43.053" gradientUnits="userSpaceOnUse">
<stop stop-color="#C861FE"/>
<stop offset="1" stop-color="#1941BF"/>
</linearGradient>
</defs>
</svg>
