<svg width="48" height="48" viewBox="0 0 48 48" fill="none" xmlns="http://www.w3.org/2000/svg">
<path d="M24.5 23.45C23.6949 23.45 22.9227 23.1603 22.3534 22.6445C21.7841 22.1288 21.4643 21.4293 21.4643 20.7C21.4643 19.9707 21.7841 19.2712 22.3534 18.7555C22.9227 18.2397 23.6949 17.95 24.5 17.95C25.3051 17.95 26.0773 18.2397 26.6466 18.7555C27.2159 19.2712 27.5357 19.9707 27.5357 20.7C27.5357 21.0611 27.4572 21.4187 27.3046 21.7524C27.1521 22.086 26.9285 22.3892 26.6466 22.6445C26.3647 22.8999 26.03 23.1025 25.6617 23.2407C25.2934 23.3789 24.8987 23.45 24.5 23.45ZM24.5 13C22.2457 13 20.0837 13.8112 18.4896 15.2553C16.8955 16.6993 16 18.6578 16 20.7C16 26.475 24.5 35 24.5 35C24.5 35 33 26.475 33 20.7C33 18.6578 32.1045 16.6993 30.5104 15.2553C28.9163 13.8112 26.7543 13 24.5 13Z" fill="url(#paint0_linear_62_4141)"/>
<path d="M46 24C46 11.8497 36.1503 2 24 2C11.8497 2 2 11.8497 2 24C2 36.1503 11.8497 46 24 46C36.1503 46 46 36.1503 46 24ZM48 24C48 37.2548 37.2548 48 24 48C10.7452 48 0 37.2548 0 24C0 10.7452 10.7452 0 24 0C37.2548 0 48 10.7452 48 24Z" fill="url(#paint1_linear_62_4141)"/>
<defs>
<linearGradient id="paint0_linear_62_4141" x1="24.5" y1="13" x2="24.5" y2="35" gradientUnits="userSpaceOnUse">
<stop stop-color="#C861FE"/>
<stop offset="1" stop-color="#1941BF"/>
</linearGradient>
<linearGradient id="paint1_linear_62_4141" x1="24" y1="0" x2="24" y2="48" gradientUnits="userSpaceOnUse">
<stop stop-color="#C861FE"/>
<stop offset="1" stop-color="#1941BF"/>
</linearGradient>
</defs>
</svg>
