<svg width="200" height="73" viewBox="0 0 200 73" fill="none" xmlns="http://www.w3.org/2000/svg">
<path d="M28.3409 15.7382C24.8097 15.7382 21.4307 16.3775 18.3257 17.5647V22.4962C21.3699 21.0655 24.7793 20.274 28.3409 20.274C41.4612 20.274 52.1461 30.9589 52.1461 44.0792C52.1461 57.1994 41.4612 67.8843 28.3409 67.8843C15.2207 67.8843 4.53577 57.1994 4.53577 44.0792C4.53577 40.3044 5.41857 36.7428 6.97108 33.5769C7.4277 32.6636 7.91476 31.7808 8.49315 30.9589V23.8356C7.97565 24.3531 7.45814 24.9011 6.97108 25.449C2.6484 30.411 0 36.9254 0 44.0792C0 59.726 12.6941 72.4201 28.3409 72.4201C43.9878 72.4201 56.6819 59.726 56.6819 44.0792C56.6819 28.4018 43.9878 15.7382 28.3409 15.7382Z" fill="white"/>
<path d="M29.7107 50.6849C25.7533 51.1415 22.1612 48.2801 21.7046 44.3227C21.248 40.3653 24.1095 36.7732 28.0669 36.3166C29.9238 36.1035 31.7198 36.621 33.1201 37.656L36.4991 35.5555C34.216 33.3638 31.0197 32.1766 27.6407 32.5723C21.5828 33.242 17.2297 38.7215 17.9299 44.7488C18.5996 50.8067 24.079 55.1598 30.1064 54.4597C32.5417 54.1857 34.7031 53.1202 36.3774 51.5677L32.6331 49.6804C31.7807 50.1979 30.8066 50.5632 29.7107 50.6849Z" fill="white"/>
<path d="M28.5237 23.2877C24.8707 23.2877 21.309 24.2618 18.1736 26.1187L17.4734 26.5449V35.7687L19.8479 33.6986C22.2527 31.5982 25.3273 30.4414 28.5237 30.4414C35.7991 30.4414 41.7048 36.347 41.7048 43.6225C41.7048 50.898 35.7991 56.8037 28.5237 56.8037C24.201 56.8037 20.1523 54.6728 17.6865 51.1416C17.5952 50.9589 17.4734 50.7763 17.3517 50.5936C15.1294 47.2451 15.5861 41.0046 15.5861 40.9437V40.8828V0L13.0899 2.77017L8.58454 7.88432L8.21924 8.28006V43.5616C8.21924 54.7641 17.3212 63.8661 28.5237 63.8661C39.7261 63.8661 48.8281 54.7641 48.8281 43.5616C48.8281 32.3897 39.7261 23.2877 28.5237 23.2877ZM28.5237 62.4353C18.1127 62.4353 9.64998 53.9726 9.64998 43.5616V8.82801L14.1858 3.74429V40.7915C14.1858 40.7915 13.6378 47.5495 16.1644 51.3546C16.2862 51.5373 16.3775 51.6895 16.4689 51.8722C19.1173 55.7078 23.5008 58.204 28.4932 58.204C36.5602 58.204 43.1051 51.6591 43.1051 43.5921C43.1051 35.5251 36.5602 28.9802 28.4932 28.9802C24.8098 28.9802 21.4308 30.3501 18.8737 32.6027V27.3364C21.7048 25.6621 24.9924 24.7184 28.4932 24.7184C38.9042 24.7184 47.3669 33.1507 47.3669 43.5921C47.3973 54.003 38.9651 62.4353 28.5237 62.4353Z" fill="white"/>
<path d="M62.3438 25.3577H68.6451C73.12 25.3577 75.6162 27.2451 75.6162 30.9589C75.6162 32.6941 74.8856 34.003 73.4244 34.8554C75.2813 35.7078 76.3468 37.2298 76.3468 39.4521C76.3468 43.4094 73.5766 45.3881 69.1626 45.3881H62.3438V25.3577ZM66.088 28.7671V33.3333H68.6756C71.05 33.3333 71.8719 32.3592 71.8719 30.9589C71.8719 29.4368 70.9587 28.7976 68.6756 28.7976H66.088V28.7671ZM66.088 36.8037V41.9482H69.1626C71.4457 41.9482 72.6025 41.0046 72.6025 39.3607C72.6025 37.7169 71.7806 36.8037 69.0104 36.8037H66.088Z" fill="white"/>
<path d="M77.9907 29.3151H81.6741V31.6895C82.4047 30.1065 83.7746 29.3151 85.7837 29.3151C86.9709 29.3151 87.8537 29.589 88.6148 30.0152L87.2145 33.516C86.6665 33.1507 86.0577 32.8767 84.9922 32.8767C82.8309 32.8767 81.7046 34.0335 81.7046 36.8037V45.3577H77.9907V29.3151Z" fill="white"/>
<path d="M88.7363 37.3516C88.7363 32.0243 92.6328 28.9802 96.6815 28.9802C98.782 28.9802 100.669 29.8326 101.826 31.2329V29.3151H105.54V45.3577H101.826V43.2877C100.639 44.8097 98.7211 45.6925 96.6206 45.6925C92.785 45.6925 88.7363 42.618 88.7363 37.3516ZM102.039 37.3212C102.039 34.5814 99.9996 32.3896 97.2295 32.3896C94.4898 32.3896 92.3589 34.551 92.3589 37.3212C92.3589 40.1218 94.4593 42.3135 97.2295 42.3135C100.03 42.3135 102.039 40.0913 102.039 37.3212Z" fill="white"/>
<path d="M107.823 29.3151H111.507V31.2938C112.572 29.8935 114.216 28.9802 116.316 28.9802C120.335 28.9802 122.679 31.4764 122.679 35.8295V45.3577H118.934V36.2253C118.934 33.7291 117.717 32.207 115.312 32.207C113.211 32.207 111.568 33.7291 111.568 36.5601V45.3577H107.854V29.3151H107.823Z" fill="white"/>
<path d="M124.262 37.3516C124.262 32.0243 128.158 28.9802 132.207 28.9802C134.277 28.9802 136.164 29.8021 137.352 31.2024V25.0837H141.096V45.3881H137.382V43.3181C136.195 44.8402 134.277 45.723 132.176 45.723C128.31 45.6925 124.262 42.618 124.262 37.3516ZM137.565 37.3212C137.565 34.5814 135.525 32.3896 132.755 32.3896C130.015 32.3896 127.884 34.551 127.884 37.3212C127.884 40.1218 129.985 42.3135 132.755 42.3135C135.555 42.3135 137.565 40.0913 137.565 37.3212Z" fill="white"/>
<path d="M142.1 41.796L145.54 40.1522C146.301 41.6743 147.64 42.4962 149.406 42.4962C151.233 42.4962 152.146 41.6134 152.146 40.5479C152.146 39.3607 150.35 39.1476 148.401 38.7215C145.662 38.1431 142.77 37.2603 142.77 33.8813C142.77 31.2938 145.266 28.9802 149.071 28.9802C152.328 28.9802 154.398 30.2283 155.616 32.2983L152.45 33.8813C151.78 32.7549 150.593 32.0548 149.041 32.0548C147.275 32.0548 146.453 32.8767 146.453 33.79C146.453 34.8554 147.701 35.1294 150.137 35.6469C152.785 36.1644 155.799 37.1081 155.799 40.4871C155.799 42.7397 153.79 45.723 149.223 45.723C145.631 45.6925 143.409 44.3227 142.1 41.796Z" fill="white"/>
<path d="M62.2524 58.6301C62.2524 52.7854 66.8491 48.3409 72.5416 48.3409C76.2859 48.3409 79.6345 50.3805 81.4001 53.3942L79.0561 54.825C77.7776 52.4505 75.4944 50.898 72.5112 50.898C68.1885 50.898 64.9008 54.3683 64.9008 58.6301C64.9008 62.8919 68.1581 66.3014 72.4808 66.3014C75.738 66.3014 78.0211 64.5966 79.2692 62.07L81.6436 63.3181C79.878 66.6362 76.6208 68.8889 72.5112 68.8889C66.6969 68.9193 62.2524 64.3227 62.2524 58.6301Z" fill="white"/>
<path d="M84.0791 48.3409H86.6666V55.0076C87.793 53.3638 89.6803 52.2679 92.0852 52.2679C96.2861 52.2679 98.9345 55.0076 98.9345 59.5434V68.6454H96.2861V59.6651C96.2861 56.4992 94.764 54.5814 91.5981 54.5814C88.828 54.5814 86.7275 56.7428 86.7275 59.726V68.6149H84.0791V48.3409Z" fill="white"/>
<path d="M101.765 60.6393C101.765 55.8295 105.388 52.2679 109.954 52.2679C112.237 52.2679 114.551 53.3638 115.86 55.2511V52.6027H118.447V68.6454H115.86V65.9361C115.22 66.9102 114.337 67.6712 113.242 68.1887C112.176 68.7062 111.08 68.9802 109.954 68.9802C105.449 68.9802 101.765 65.4186 101.765 60.6393ZM116.042 60.6088C116.042 57.3212 113.485 54.6423 110.197 54.6423C107.001 54.6423 104.414 57.2907 104.414 60.6088C104.414 63.9269 107.001 66.5753 110.197 66.5753C113.485 66.5753 116.042 63.9269 116.042 60.6088Z" fill="white"/>
<path d="M122.1 52.6027H124.688V54.8554C125.753 53.242 127.519 52.2679 129.832 52.2679C132.694 52.2679 134.612 53.5464 135.525 55.5251C136.59 53.5464 138.691 52.2679 141.309 52.2679C145.844 52.2679 148.28 55.0076 148.28 59.1781V68.6454H145.631V59.1476C145.631 56.4384 143.927 54.551 141.065 54.551C138.478 54.551 136.468 56.347 136.468 59.3912V68.6454H133.82V58.9041C133.82 56.2557 132.176 54.5814 129.436 54.5814C126.727 54.5814 124.718 56.4384 124.718 59.6347V68.6758H122.1V52.6027Z" fill="white"/>
<path d="M154.277 65.9665V68.6454H151.75V48.3409H154.307V55.2511C155.586 53.3638 157.899 52.2679 160.182 52.2679C164.748 52.2679 168.371 55.8295 168.371 60.6393C168.371 65.4186 164.688 68.9802 160.213 68.9802C157.93 68.9802 155.586 67.9148 154.277 65.9665ZM165.723 60.6088C165.723 57.3212 163.196 54.6423 159.969 54.6423C156.59 54.6423 154.124 57.2907 154.124 60.6088C154.124 63.9269 156.59 66.5753 159.969 66.5753C163.196 66.5753 165.723 63.9269 165.723 60.6088Z" fill="white"/>
<path d="M170.715 60.7306C170.715 55.9513 174.277 52.2679 179.056 52.2679C183.744 52.2679 187.275 55.586 187.275 60.4262V61.5221H173.242C173.607 64.5662 175.921 66.6667 179.178 66.6667C181.735 66.6667 183.562 65.3577 184.536 63.2572L186.758 64.4444C185.297 67.3059 182.892 69.0107 179.178 69.0107C174.064 68.9802 170.715 65.4186 170.715 60.7306ZM173.425 59.1781H184.657C184.201 56.3166 182.192 54.5814 179.087 54.5814C176.195 54.6119 174.003 56.5297 173.425 59.1781Z" fill="white"/>
<path d="M190.228 52.6027H192.816V54.9163C193.607 53.3638 194.946 52.5723 196.864 52.5723C198.265 52.5723 199.208 52.968 200 53.3942L198.904 55.8295C198.265 55.4033 197.777 55.1294 196.469 55.1294C194.307 55.1294 192.846 56.4384 192.846 59.6043C192.846 59.7565 192.785 62.0396 192.876 64.2314V68.6454H190.228V52.6027Z" fill="white"/>
</svg>
