<svg width="48" height="48" viewBox="0 0 48 48" fill="none" xmlns="http://www.w3.org/2000/svg">
<path d="M36 17.375C36 16.0688 34.965 15 33.7 15H15.3C14.035 15 13 16.0688 13 17.375V31.625C13 32.9312 14.035 34 15.3 34H33.7C34.965 34 36 32.9312 36 31.625V17.375ZM33.7 17.375L24.5 23.3006L15.3 17.375H33.7ZM33.7 31.625H15.3V19.75L24.5 25.6875L33.7 19.75V31.625Z" fill="url(#paint0_linear_62_4137)"/>
<path d="M46 24C46 11.8497 36.1503 2 24 2C11.8497 2 2 11.8497 2 24C2 36.1503 11.8497 46 24 46C36.1503 46 46 36.1503 46 24ZM48 24C48 37.2548 37.2548 48 24 48C10.7452 48 0 37.2548 0 24C0 10.7452 10.7452 0 24 0C37.2548 0 48 10.7452 48 24Z" fill="url(#paint1_linear_62_4137)"/>
<defs>
<linearGradient id="paint0_linear_62_4137" x1="24.5" y1="15" x2="24.5" y2="34" gradientUnits="userSpaceOnUse">
<stop stop-color="#C861FE"/>
<stop offset="1" stop-color="#1941BF"/>
</linearGradient>
<linearGradient id="paint1_linear_62_4137" x1="24" y1="0" x2="24" y2="48" gradientUnits="userSpaceOnUse">
<stop stop-color="#C861FE"/>
<stop offset="1" stop-color="#1941BF"/>
</linearGradient>
</defs>
</svg>
