<svg width="48" height="48" viewBox="0 0 48 48" fill="none" xmlns="http://www.w3.org/2000/svg">
<path d="M19.0139 14.8254C19.782 14.8207 20.5262 15.0938 21.1086 15.5949C21.6206 16.0356 21.9776 16.6258 22.1311 17.2785L22.1838 17.5617L22.1858 17.5735L22.2336 17.9006C22.3558 18.6621 22.5527 19.41 22.8225 20.133L22.8948 20.3489C23.0452 20.8569 23.0672 21.3957 22.9563 21.9162C22.8295 22.5112 22.5343 23.0578 22.1067 23.4905L21.4817 24.1155C22.6138 25.8569 24.0978 27.3409 25.8381 28.4739L26.4582 27.8547L26.4631 27.8508L26.6301 27.6965C27.0325 27.3516 27.5156 27.1113 28.0364 27.0002C28.6303 26.8735 29.248 26.9199 29.8166 27.133C30.54 27.4034 31.2891 27.6015 32.051 27.7239L32.3782 27.7717L32.3889 27.7727L32.675 27.8264C33.335 27.9821 33.9308 28.3461 34.3723 28.8674C34.8702 29.4555 35.1363 30.204 35.1243 30.9739L35.1252 33.9797L35.1213 34.1457C35.1028 34.5321 35.0139 34.9125 34.8586 35.2678C34.6812 35.6738 34.4213 36.0385 34.095 36.3381C33.7685 36.6377 33.3828 36.866 32.9631 37.008C32.596 37.1322 32.2098 37.1877 31.8235 37.1731L31.6575 37.1623L31.636 37.1604C28.3699 36.8049 25.2332 35.6883 22.4758 33.9016C19.9093 32.2698 17.7328 30.0945 16.1008 27.5276C14.4179 24.9277 13.3313 21.991 12.9143 18.927L12.8401 18.3127L12.8381 18.2942C12.7984 17.8542 12.8505 17.4101 12.9914 16.9914C13.1324 16.573 13.3589 16.1887 13.6565 15.8625C13.9542 15.5362 14.3169 15.2755 14.7209 15.0969C15.1249 14.9184 15.5615 14.8259 16.0032 14.8254H19.0139ZM15.9192 17.1799C15.8337 17.1889 15.7501 17.2115 15.6711 17.2463C15.5657 17.2929 15.4706 17.3612 15.3928 17.4465C15.3151 17.5317 15.2558 17.6321 15.219 17.7414C15.1826 17.8496 15.1683 17.9646 15.178 18.0783C15.4703 20.8093 16.3609 23.4399 17.7825 25.7844L18.0744 26.2512L18.0803 26.259L18.3567 26.6828C19.6757 28.6387 21.3589 30.3221 23.3137 31.6418L23.7375 31.9192L23.7463 31.925L24.2092 32.216C26.5422 33.6341 29.1595 34.5238 31.8772 34.8215C31.9897 34.8306 32.1032 34.8177 32.2102 34.7815C32.3195 34.7445 32.4199 34.6847 32.5051 34.6067C32.5904 34.5284 32.6589 34.4326 32.7053 34.3264C32.7517 34.2203 32.7751 34.1054 32.7746 33.9895V30.9446C32.7796 30.7405 32.7101 30.5415 32.5784 30.386C32.4466 30.2305 32.2622 30.1293 32.0608 30.1008C31.0132 29.9621 29.9843 29.7052 28.9944 29.3352L28.9924 29.3342C28.8438 29.2783 28.6818 29.2659 28.5266 29.2991C28.3714 29.3322 28.2294 29.41 28.1164 29.5217L28.1155 29.5207L26.8469 30.7912C26.4728 31.1655 25.8948 31.2433 25.4348 30.9817C22.9081 29.5442 20.7885 27.4924 19.2707 25.0198L18.9748 24.5198C18.7135 24.0599 18.7914 23.4817 19.1653 23.1076L20.4348 21.8381C20.5464 21.7252 20.6232 21.5824 20.6565 21.427C20.6896 21.2714 20.6782 21.1091 20.6223 20.9602L20.6213 20.9582C20.2516 19.968 19.9953 18.9387 19.8567 17.8908L19.8215 17.7444C19.7743 17.6026 19.69 17.4748 19.5754 17.3762C19.4226 17.2447 19.227 17.1741 19.0256 17.176H16.0061L15.9192 17.1799ZM26.0842 18.844L26.2034 18.8615L26.4299 18.9114C27.5593 19.1786 28.5928 19.7579 29.4104 20.5862C30.2278 21.4144 30.7942 22.4553 31.0471 23.5881L31.094 23.8166L31.1096 23.9358C31.1576 24.5294 30.7489 25.0745 30.1506 25.1848C29.552 25.295 28.9762 24.9307 28.8098 24.3586L28.7815 24.2414L28.719 23.9612C28.5485 23.3122 28.211 22.7173 27.7375 22.2375C27.264 21.7578 26.6738 21.4122 26.0276 21.2336L25.7483 21.1682L25.6311 21.1389C25.0613 20.9651 24.7047 20.3843 24.8225 19.7873C24.9403 19.1902 25.491 18.7881 26.0842 18.844ZM26.0989 14.8313C28.4097 15.0749 30.5679 16.101 32.217 17.7385C33.7629 19.2736 34.7752 21.2601 35.1106 23.4055L35.1682 23.8371L35.176 23.9573C35.1826 24.5529 34.7367 25.0687 34.1321 25.1369C33.5275 25.2052 32.9783 24.8019 32.8518 24.2199L32.8323 24.1008L32.7873 23.7688C32.5292 22.1172 31.7506 20.588 30.5608 19.4065C29.2915 18.1461 27.6301 17.3566 25.8518 17.1692L26.0989 14.8313ZM26.0989 14.8313L25.8518 17.1692C25.2065 17.1009 24.7389 16.5226 24.8069 15.8772C24.8749 15.2316 25.4533 14.7632 26.0989 14.8313Z" fill="url(#paint0_linear_62_4133)"/>
<path d="M46 24C46 11.8497 36.1503 2 24 2C11.8497 2 2 11.8497 2 24C2 36.1503 11.8497 46 24 46C36.1503 46 46 36.1503 46 24ZM48 24C48 37.2548 37.2548 48 24 48C10.7452 48 0 37.2548 0 24C0 10.7452 10.7452 0 24 0C37.2548 0 48 10.7452 48 24Z" fill="url(#paint1_linear_62_4133)"/>
<defs>
<linearGradient id="paint0_linear_62_4133" x1="24.0006" y1="14.8247" x2="24.0006" y2="37.1754" gradientUnits="userSpaceOnUse">
<stop stop-color="#C861FE"/>
<stop offset="1" stop-color="#1941BF"/>
</linearGradient>
<linearGradient id="paint1_linear_62_4133" x1="24" y1="0" x2="24" y2="48" gradientUnits="userSpaceOnUse">
<stop stop-color="#C861FE"/>
<stop offset="1" stop-color="#1941BF"/>
</linearGradient>
</defs>
</svg>
