<svg width="42" height="44" viewBox="0 0 42 44" fill="none" xmlns="http://www.w3.org/2000/svg">
<rect width="41.8571" height="43.053" rx="11.9592" fill="url(#paint0_linear_62_4153)"/>
<path d="M31.0939 14.0694C30.3016 14.4388 29.4475 14.6815 28.5626 14.7975C29.4681 14.2383 30.1678 13.3519 30.4971 12.2861C29.643 12.8137 28.6963 13.183 27.6982 13.3941C26.8853 12.4866 25.7431 11.959 24.4466 11.959C22.0285 11.959 20.0528 13.985 20.0528 16.4859C20.0528 16.8447 20.094 17.1929 20.166 17.52C16.5028 17.3301 13.2409 15.5256 11.0697 12.7926C10.689 13.4574 10.4729 14.2383 10.4729 15.0613C10.4729 16.6336 11.2446 18.0265 12.4383 18.8179C11.7077 18.8179 11.0286 18.6069 10.4317 18.2903V18.322C10.4317 20.5168 11.9546 22.3529 13.9715 22.7644C13.3241 22.9469 12.6441 22.9722 11.9855 22.8383C12.265 23.7379 12.8123 24.525 13.5506 25.089C14.2889 25.6531 15.181 25.9657 16.1015 25.9829C14.5412 27.2497 12.607 27.9344 10.617 27.9245C10.2671 27.9245 9.91724 27.9034 9.56738 27.8612C11.5225 29.1485 13.848 29.8977 16.3381 29.8977C24.4466 29.8977 28.9021 22.9966 28.9021 17.0135C28.9021 16.813 28.9021 16.6231 28.8918 16.4226C29.7562 15.7894 30.4971 14.9875 31.0939 14.0694Z" fill="white"/>
<defs>
<linearGradient id="paint0_linear_62_4153" x1="20.9285" y1="0" x2="20.9285" y2="43.053" gradientUnits="userSpaceOnUse">
<stop stop-color="#C861FE"/>
<stop offset="1" stop-color="#1941BF"/>
</linearGradient>
</defs>
</svg>
