<svg width="54" height="55" viewBox="0 0 54 55" fill="none" xmlns="http://www.w3.org/2000/svg">
<path d="M1.15184 26.8852C1.15057 31.4577 2.34532 35.9224 4.61712 39.8577L0.93457 53.3033L14.6944 49.6954C18.5003 51.7672 22.7644 52.8528 27.0976 52.8531H27.109C41.4137 52.8531 53.0581 41.213 53.0642 26.9057C53.0669 19.9728 50.3695 13.4536 45.4685 8.54887C40.5685 3.64457 34.0515 0.942251 27.1079 0.939087C12.8015 0.939087 1.15795 12.5786 1.15205 26.8852" fill="url(#paint0_linear_2146_1033)"/>
<path d="M0.225703 26.8768C0.224227 31.6138 1.4618 36.2382 3.81459 40.3144L0 54.2419L14.2533 50.5048C18.1805 52.646 22.6022 53.7749 27.1015 53.7766H27.1131C41.931 53.7766 53.9937 41.7177 54 26.8983C54.0025 19.7163 51.208 12.9627 46.132 7.88231C41.0554 2.80252 34.3054 0.00295312 27.1131 0C12.2926 0 0.231609 12.0572 0.225703 26.8768ZM8.71404 39.6124L8.18184 38.7676C5.94464 35.2103 4.76381 31.0996 4.7655 26.8785C4.77014 14.5608 14.7947 4.53937 27.1215 4.53937C33.091 4.54191 38.7011 6.86897 42.9207 11.0911C47.1401 15.3136 49.4619 20.9267 49.4604 26.8966C49.4549 39.2143 39.4301 49.237 27.1131 49.237H27.1042C23.0936 49.2349 19.1603 48.1579 15.73 46.1225L14.9137 45.6384L6.45553 47.856L8.71404 39.6124Z" fill="url(#paint1_linear_2146_1033)"/>
<path d="M20.3931 15.6407C19.8898 14.5221 19.3602 14.4995 18.8815 14.4799C18.4896 14.463 18.0416 14.4643 17.594 14.4643C17.146 14.4643 16.418 14.6328 15.8027 15.3046C15.1868 15.9771 13.4512 17.6022 13.4512 20.9073C13.4512 24.2125 15.8586 27.407 16.1942 27.8556C16.5302 28.3034 20.8418 35.3032 27.6703 37.996C33.3453 40.2339 34.5002 39.7888 35.7319 39.6766C36.9637 39.5648 39.7068 38.0519 40.2664 36.4832C40.8264 34.9146 40.8264 33.5701 40.6585 33.2892C40.4906 33.0092 40.0426 32.8411 39.3707 32.5053C38.6989 32.1695 35.3958 30.544 34.7801 30.3198C34.1642 30.0958 33.7164 29.984 33.2683 30.6567C32.8203 31.3283 31.5338 32.8411 31.1417 33.2892C30.7499 33.7382 30.3578 33.7941 29.6862 33.4581C29.0139 33.121 26.8503 32.4125 24.2834 30.124C22.2863 28.3433 20.938 26.1443 20.5461 25.4716C20.1541 24.8 20.5041 24.4359 20.8409 24.1011C21.1428 23.8001 21.513 23.3167 21.8492 22.9245C22.1842 22.5322 22.296 22.2523 22.52 21.8042C22.7442 21.3558 22.632 20.9635 22.4643 20.6274C22.296 20.2914 20.9905 16.9689 20.3931 15.6407Z" fill="white"/>
<defs>
<linearGradient id="paint0_linear_2146_1033" x1="2607.42" y1="5237.36" x2="2607.42" y2="0.939087" gradientUnits="userSpaceOnUse">
<stop stop-color="#1FAF38"/>
<stop offset="1" stop-color="#60D669"/>
</linearGradient>
<linearGradient id="paint1_linear_2146_1033" x1="2700" y1="5424.19" x2="2700" y2="0" gradientUnits="userSpaceOnUse">
<stop stop-color="#F9F9F9"/>
<stop offset="1" stop-color="white"/>
</linearGradient>
</defs>
</svg>
