<svg width="66" height="66" viewBox="0 0 66 66" fill="none" xmlns="http://www.w3.org/2000/svg">
<rect width="65.625" height="65.625" rx="14.5833" fill="#1941BF"/>
<path fill-rule="evenodd" clip-rule="evenodd" d="M41.642 17.501C42.9989 16.6812 44.4976 16.879 45.6 18.0098C45.8262 18.2359 46.0242 18.4907 46.1938 18.7451C46.7023 19.4234 46.7585 20.1579 46.4477 20.9209C46.2782 21.3448 46.0526 21.7411 45.7983 22.1084C44.7524 23.5783 43.3946 24.8227 42.1508 26.1231C41.7269 26.575 41.2463 26.6593 40.7094 26.2354C40.3987 25.9813 40.1443 26.038 39.8901 26.3203C38.7311 27.6489 37.5716 28.9781 36.4409 30.335C36.1301 30.7305 36.1583 30.872 36.4692 31.2959C36.5822 31.4371 36.6951 31.5785 36.8081 31.7197L39.7768 34.6885C40.229 35.1406 40.7098 35.367 41.3598 35.2822C42.0382 35.1975 42.7165 35.2817 43.3666 35.4795C45.7977 36.1297 47.6915 38.0806 48.059 41.0205C48.2002 42.0945 47.7766 43.0555 47.1831 43.9317C46.9852 44.2142 46.618 44.2708 46.3354 44.0449C46.0527 43.8188 45.7978 43.564 45.5434 43.3096C44.8368 42.6877 44.1299 42.0379 43.395 41.4443C43.0557 41.1617 42.6599 41.1049 42.2641 41.3027C41.5293 41.6985 41.3881 42.3206 41.8969 42.999C42.0948 43.2534 42.3212 43.4799 42.5473 43.7061C43.0843 44.2431 43.65 44.7804 44.187 45.3174C45.0063 46.1652 44.8927 46.6171 43.7622 47.0693C41.1333 48.0868 38.0241 47.013 36.5825 44.6104C35.9041 43.508 35.5086 42.2925 35.6215 41.0205C35.7063 40.2007 35.4232 39.6348 34.8579 39.126C33.9533 38.3063 33.1052 37.4301 32.2006 36.6104C31.4657 35.9603 31.4093 35.9604 30.7875 36.6104C29.7699 37.6563 28.7516 38.6739 27.8188 39.7764C26.4054 41.5007 24.7379 42.9709 23.2397 44.6104C22.7027 45.2038 21.9677 45.4867 21.2329 45.6563C20.5827 45.7976 19.9886 45.5717 19.4233 45.2608C18.9145 44.9498 18.49 44.5539 18.1225 44.1016C17.0768 42.7731 17.1621 41.1052 18.4057 39.9463C19.3667 39.0419 20.3842 38.2219 21.3735 37.374C23.0129 35.9607 24.6813 34.5471 26.3207 33.1338C26.6034 32.9077 26.83 32.6245 27.0844 32.3701C27.2539 32.2006 27.3387 31.9742 27.1411 31.7764C26.5192 31.0132 25.7841 30.3347 25.0209 29.6846C24.5969 29.204 24.0874 29.4024 23.5786 29.4024C20.2149 29.5718 17.8966 27.3949 17.1616 24.4834C16.8506 23.2679 17.1617 22.165 17.7553 21.0908C17.9814 20.6953 18.2924 20.667 18.6596 20.9492C18.9423 21.1754 19.1972 21.4302 19.4516 21.6846L20.893 23.126C21.5431 23.7761 22.4759 23.6347 22.9565 23.0977C23.4653 22.5606 23.381 21.7977 22.7309 21.1758C22.0807 20.5539 21.4026 19.9315 20.7524 19.3379C19.9609 18.6312 20.0453 18.179 21.0346 17.7832C22.5328 17.1896 24.0315 17.1613 25.5297 17.7549C28.0455 18.7443 29.6564 21.091 29.5151 23.7764C29.4586 24.6244 29.7135 25.1338 30.3071 25.6426C30.9005 26.1231 31.4372 26.6886 32.0307 27.1973C32.4264 27.5365 32.5969 27.5365 32.9926 27.2256C34.3495 26.0949 35.706 24.9637 37.0346 23.833C37.4586 23.4656 37.4586 23.3525 37.0346 22.8154C36.5541 22.2218 36.6392 21.9385 37.1762 21.458C38.3916 20.3274 39.6357 19.197 40.8793 18.0664C41.1054 17.8686 41.3595 17.6705 41.642 17.501ZM35.395 32.2852C35.0559 32.0027 34.8582 32.0028 34.5756 32.3135C33.9255 33.0202 33.303 33.7269 32.6811 34.4336C32.5116 34.6314 32.5116 34.8578 32.6811 35.0557C32.9072 35.3383 33.1621 35.5923 33.4165 35.8467C34.4341 36.8644 35.4516 37.8827 36.5258 38.8721C36.9497 39.2678 37.1761 39.72 37.1196 40.3135C37.0631 40.4548 37.0629 40.6245 37.0629 40.8506C37.0629 41.5855 37.006 42.3773 37.3452 43.084C38.0519 44.6104 39.4375 46.2219 41.812 45.8545C41.9815 45.8262 42.1793 45.8257 42.2924 45.6563C42.4337 45.4019 42.2082 45.2604 42.0668 45.0908C41.6146 44.5255 41.1334 43.9882 40.6811 43.4229C40.3137 42.9707 40.116 42.49 40.2573 41.9248C40.4834 40.992 41.1056 40.3704 41.9819 39.9746C42.8298 39.6073 43.5643 39.805 44.2426 40.3701C44.5535 40.6245 44.837 40.9068 45.1479 41.1895C45.4588 41.4439 45.7696 41.6987 46.1088 41.9531C46.2784 42.0944 46.4478 41.9811 46.5327 41.8115C46.7022 41.4441 46.7873 41.0197 46.6743 40.624C46.2219 38.8999 45.3173 37.5994 43.5649 36.9776C42.6886 36.6666 41.7839 36.6388 40.8793 36.6953C40.2858 36.7236 39.861 36.5256 39.437 36.1016C38.3063 34.9992 37.1477 33.8964 36.017 32.8223C35.8192 32.6244 35.6211 32.4548 35.395 32.2852ZM39.1264 24.6524C38.7873 24.1721 38.4477 24.1161 37.9956 24.5117C37.8827 24.5964 37.7978 24.7093 37.685 24.794C32.2011 29.5712 26.6885 34.3204 21.2045 39.0977C20.5544 39.663 19.9319 40.257 19.31 40.8506C18.9426 41.2181 18.773 41.6708 18.8012 42.1231C18.8298 43.5927 20.2998 44.5252 21.6 43.96C22.1088 43.7338 22.4768 43.3664 22.8725 42.9424C25.0491 40.5962 27.197 38.193 29.4301 35.9033C32.5395 32.7374 35.4513 29.4303 38.4194 26.1231C38.702 25.8122 38.9288 25.5012 39.1831 25.1621C39.3244 24.9925 39.2395 24.822 39.1264 24.6524ZM28.1303 23.211C28.102 20.7235 26.1513 18.3772 22.8442 18.8858C22.6464 18.9141 22.5329 19.1409 22.6743 19.2822C22.8721 19.5365 23.0703 19.7622 23.2963 19.9883C23.6355 20.3558 24.003 20.695 24.3422 21.0625C24.8793 21.6561 24.9635 22.3062 24.6245 23.0693C24.3135 23.7477 23.7766 24.2009 23.1264 24.5684C22.0524 25.1618 21.5151 25.1333 20.5258 24.3701C19.9887 23.9461 19.48 23.4934 18.9711 23.0693C18.7733 22.9 18.5472 23.0416 18.4907 23.2959C18.3776 23.9178 18.6033 24.4552 18.7729 25.0205C19.2817 26.4338 20.2433 27.3662 21.6567 27.875C22.2784 28.1011 22.9002 28.045 23.5219 28.0449C25.642 28.0167 25.1615 27.8758 26.6879 29.3457C27.1685 29.8263 27.6781 30.2782 28.187 30.7305C28.3564 30.8999 28.5821 30.9846 28.8081 30.8154C29.6561 30.1088 30.618 29.5432 31.353 28.6104C31.1834 28.4125 31.0695 28.2145 30.9282 28.0449C30.2216 27.3383 29.543 26.6315 28.8364 25.9531C28.356 25.5009 28.0456 24.9917 28.1303 24.2852C28.1586 23.9178 28.1303 23.5501 28.1303 23.211ZM45.2329 20.1016C45.2046 18.9143 44.0452 18.0942 42.9145 18.3203C42.4622 18.4051 42.0662 18.6314 41.727 18.9141C40.6811 19.8469 39.6636 20.8084 38.6459 21.7695C38.4482 21.9391 38.4481 22.1655 38.6459 22.3633C39.3526 23.0417 40.0595 23.7483 40.7944 24.3985C41.2749 24.8224 41.4448 24.8222 41.9252 24.3135C42.858 23.3524 43.7912 22.3633 44.6957 21.3457C45.0349 21.0065 45.2328 20.5538 45.2329 20.1016Z" fill="white"/>
</svg>
