<svg width="66" height="66" viewBox="0 0 66 66" fill="none" xmlns="http://www.w3.org/2000/svg">
<rect width="65.625" height="65.625" rx="14.5833" fill="#1941BF"/>
<path fill-rule="evenodd" clip-rule="evenodd" d="M37.6623 17C41.394 17.0823 44.6046 18.7289 46.6076 22.2686C48.638 25.8081 48.4733 29.4021 46.3332 32.8867C45.2357 34.6702 43.6993 36.0147 41.7238 36.8379C38.98 37.9903 36.2362 37.9354 33.5197 36.8379C33.3004 36.7557 33.1081 36.6467 32.9162 36.5645C32.0382 36.1803 32.0924 35.9332 31.132 36.8936C30.7206 37.305 30.3092 37.6618 29.8977 38.0732C29.7057 38.2926 29.5957 38.512 29.7873 38.7861C29.8422 38.8684 29.8702 38.9236 29.925 39.0059C30.6109 39.9387 30.5009 40.1856 29.7053 41.0361C28.7998 41.9965 27.8395 42.9296 26.8791 43.8076C25.809 44.768 24.711 45.7282 23.6135 46.6611C23.3665 46.9081 23.0647 47.101 22.7629 47.2656C22.132 47.5946 21.5011 47.5942 20.925 47.1279C20.1293 46.4968 19.4155 45.783 18.7844 44.9873C18.0714 44.0545 18.1811 42.9024 19.0588 41.9971C19.9094 41.174 20.7874 40.3505 21.6106 39.5273C22.7904 38.4023 23.9981 37.3046 25.1779 36.207C25.8913 35.5212 26.3579 35.494 27.1262 36.0977C27.4553 36.372 27.757 36.7012 28.0861 37.0029C28.4429 37.3048 28.663 37.3048 29.0197 37.0029C29.2392 36.8109 29.4585 36.5915 29.6779 36.3721C30.0072 36.0428 30.4463 35.7955 30.5012 35.3564C30.5559 34.8902 30.0343 34.671 29.76 34.3418C28.2234 32.5034 27.2089 30.4997 27.0168 28.0576C26.8248 25.6431 27.4555 23.4482 28.8274 21.4727C30.1444 19.5794 31.9282 18.2625 34.0959 17.4668C35.1659 17.0827 36.2632 17.0823 37.6623 17ZM26.3576 37.168C26.2206 37.2227 26.0835 37.2499 26.0012 37.332C25.5622 37.7162 25.1501 38.1002 24.7385 38.4844C23.4215 39.6917 22.077 40.8992 20.76 42.1064C20.4583 42.3807 20.1845 42.6553 19.9651 42.9844C19.6358 43.4234 19.6631 43.7808 19.9924 44.1924C20.2667 44.5489 20.596 44.8505 20.8703 45.1797C21.6934 46.1674 22.0498 46.5516 23.3117 45.3447C24.766 43.9728 26.2753 42.6278 27.757 41.2559C28.0314 40.9815 28.3059 40.7071 28.5803 40.4053C28.882 40.0487 28.91 39.8566 28.6906 39.4727C28.1419 38.677 27.4284 38.0179 26.7151 37.3594C26.6053 37.2771 26.4674 37.2228 26.3576 37.168ZM37.718 18.29C32.6968 18.0705 28.1418 22.6797 28.4709 27.207C28.2788 32.832 32.9436 36.2349 37.1692 36.3721C42.3549 36.5365 46.498 32.393 46.5803 27.7285C46.7174 21.7471 42.3275 18.5097 37.718 18.29ZM38.2385 19.7715C41.6409 19.7715 44.4123 22.543 44.4123 25.918C44.4122 26.2197 44.1652 26.4668 43.8635 26.4668C43.5619 26.4666 43.3148 26.2195 43.3147 25.918C43.3147 23.1192 41.0373 20.8418 38.2385 20.8418C37.0862 20.8419 35.9886 21.2261 35.0832 21.9395C34.8363 22.1312 34.5076 22.1032 34.3156 21.8564C34.1236 21.6095 34.1508 21.2809 34.3977 21.0889C35.5226 20.2383 36.8393 19.7716 38.2385 19.7715Z" fill="white"/>
</svg>
