<svg width="66" height="66" viewBox="0 0 66 66" fill="none" xmlns="http://www.w3.org/2000/svg">
<rect width="65.625" height="65.625" rx="14.5833" fill="#1941BF"/>
<path fill-rule="evenodd" clip-rule="evenodd" d="M34.2324 12.0313C37.9456 11.5579 41.4605 13.507 43.0049 16.877C44.5904 20.3226 43.7802 24.7362 40.1084 27.3858C40.472 27.4132 40.7607 27.4343 41.0488 27.5166C42.2565 27.86 43.0526 28.8965 43.0732 30.1455C43.0801 30.6396 43.087 31.1271 43.0732 31.6211C43.0664 31.8269 43.0948 31.9095 43.335 31.8272C44.3162 31.4978 45.3117 31.1887 46.2998 30.8731C46.3752 30.8526 46.4716 30.8449 46.5059 30.7627C46.6364 30.4269 46.9521 30.3237 47.2402 30.1866C48.5373 29.562 49.8348 28.937 51.1318 28.3125C51.2964 28.2303 51.4614 28.1545 51.6328 28.086C52.3807 27.7843 52.9784 28.1757 52.9785 28.9785V40.2012C52.9785 41.8004 52.9373 43.4067 52.999 45.0059C53.0401 45.9733 52.2236 46.3369 51.4688 45.9737C50.1373 45.3217 48.7846 44.7037 47.4463 44.0586C47.11 43.9008 46.6912 43.8318 46.5127 43.4199C46.492 43.3721 46.3957 43.3516 46.334 43.3311C45.339 43.0223 44.3436 42.7268 43.3555 42.4043C43.1084 42.322 43.0664 42.3977 43.0732 42.6241C43.087 43.1181 43.0801 43.6055 43.0732 44.0996C43.0458 45.6986 41.845 46.8795 40.2461 46.8799H17.9033C16.2834 46.8799 15.0821 45.6853 15.0752 44.0655C15.0683 41.5603 15.0683 39.055 15.082 36.5498C15.0889 36.207 14.9852 36.1309 14.6631 36.1446C14.0662 36.172 13.4758 36.1514 12.8789 36.1446C12.3642 36.1377 12.1232 35.8974 12.123 35.3828V30.8184C12.13 30.3449 12.3985 30.0831 12.8789 30.0762H14.9248C15.0106 30.071 15.0802 30.0422 15.0957 29.8985C15.2536 28.6219 15.9883 27.8385 17.1963 27.461C17.21 27.454 17.2306 27.4403 17.2441 27.4268C14.1695 24.894 14.2999 20.2133 17.2373 17.7354C20.1065 15.3196 24.9736 15.8824 26.9229 19.6162C27.3828 15.3334 30.6153 12.4913 34.2324 12.0313ZM40.0947 28.8135C36.4296 28.8478 32.757 28.8272 29.085 28.8272V28.8203H17.9717C17.0385 28.8204 16.503 29.3354 16.5029 30.2481C16.4961 34.8538 16.5029 39.4666 16.5098 44.0723C16.5098 44.9303 17.059 45.4658 17.9102 45.4658C25.3025 45.4658 32.6887 45.4589 40.0742 45.4795C40.9731 45.4793 41.6729 44.9505 41.6592 43.8731C41.6249 39.3774 41.6317 34.8883 41.6592 30.3926C41.666 29.528 41.1994 28.8 40.0947 28.8135ZM51.5986 29.6446C50.4046 30.2278 49.272 30.7909 48.126 31.333C47.8721 31.4497 47.8096 31.5938 47.8096 31.8545C47.8096 35.3551 47.8096 38.8491 47.7959 42.3496C47.7959 42.5965 47.8851 42.7136 48.0977 42.8096C49.1134 43.2763 50.1298 43.7569 51.1387 44.2373C51.5845 44.4431 51.585 44.4493 51.585 43.9346C51.5918 40.894 51.5918 37.8531 51.5918 34.8125C51.5918 33.1105 51.5918 31.4083 51.5986 29.6446ZM28.9473 38.9658C29.5371 38.966 29.785 39.206 29.7988 39.7959C29.8057 40.8941 29.8057 41.9927 29.8057 43.0908C29.7988 43.6329 29.5507 43.8798 28.9951 43.8799H19.2148C18.5766 43.8799 18.3497 43.6468 18.3496 43.0088C18.3496 41.945 18.3427 40.8803 18.3496 39.8164C18.3497 39.1922 18.576 38.9728 19.2002 38.9727C22.4466 38.9658 25.7008 38.9658 28.9473 38.9658ZM28.0693 40.3584C26.7379 40.3722 25.3988 40.3653 24.0605 40.3653H20.0518C19.9077 40.3653 19.7502 40.3248 19.7568 40.5713C19.7706 41.1478 19.7637 41.7185 19.7568 42.2881C19.757 42.4593 19.8394 42.4932 19.9902 42.4932C22.7013 42.4863 25.4061 42.4864 28.1172 42.4864C28.3294 42.4862 28.3916 42.4108 28.3848 42.2051C28.3779 41.6905 28.371 41.1758 28.3916 40.6612C28.3984 40.4145 28.3088 40.3586 28.0693 40.3584ZM46.3818 32.3487C45.3731 32.6643 44.3846 32.9803 43.3896 33.2754C43.1495 33.344 43.0733 33.4542 43.0732 33.7012C43.0801 35.9866 43.0801 38.2722 43.0732 40.5576C43.0732 40.7842 43.1564 40.867 43.3623 40.9287C44.2749 41.1963 45.1812 41.4638 46.0801 41.7588C46.3337 41.8479 46.4023 41.8204 46.4092 41.5391C46.3955 38.574 46.3955 35.6155 46.3955 32.6573C46.3955 32.5681 46.3887 32.472 46.3818 32.3487ZM20.6074 30.3448C22.0348 30.3519 23.161 31.477 23.1611 32.8838C23.1611 34.3045 21.9871 35.451 20.5391 35.4375C19.1182 35.4238 18.0136 34.2978 18.0205 32.8701C18.0275 31.4289 19.1456 30.3381 20.6074 30.3448ZM27.1973 30.3369C28.6109 30.3441 29.7303 31.4839 29.7236 32.9043C29.7168 34.3111 28.5494 35.4371 27.1084 35.4307C25.7081 35.4238 24.5683 34.2705 24.5889 32.8565C24.6027 31.422 25.7353 30.3301 27.1973 30.3369ZM13.7852 31.4903C13.5726 31.4765 13.5313 31.5592 13.5381 31.7442V34.5244C13.5312 34.6686 13.552 34.7647 13.7373 34.7578C14.1144 34.751 14.492 34.751 14.8691 34.7578C15.0403 34.7577 15.082 34.689 15.082 34.5313C15.0752 33.591 15.0751 32.6571 15.0957 31.7168C15.0956 31.5252 15.0061 31.4972 14.8486 31.4971C14.492 31.504 14.1349 31.5108 13.7852 31.4903ZM20.5938 31.7237C19.9487 31.7238 19.4201 32.232 19.4199 32.8633C19.4131 33.4879 19.9419 34.0302 20.5596 34.044C21.2046 34.0574 21.7471 33.522 21.7471 32.877C21.7469 32.2389 21.2318 31.7239 20.5938 31.7237ZM27.1631 31.7237C26.5248 31.7099 25.9962 32.2182 25.9961 32.8565C25.9892 33.488 26.5043 34.0234 27.1221 34.044C27.7532 34.0572 28.3164 33.515 28.3164 32.8838C28.3231 32.2596 27.7942 31.7309 27.1631 31.7237ZM38.1318 31.4492C38.8723 31.4492 38.873 31.4498 38.8799 32.1289C38.8867 32.822 38.8861 32.8223 38.1523 32.8223C37.4316 32.8154 37.4316 32.8153 37.4385 32.1153C37.4453 31.4496 37.4455 31.4492 38.1318 31.4492ZM34.6514 31.4424C35.3921 31.4424 35.3926 31.4429 35.3994 32.1768C35.3994 32.8081 35.399 32.8086 34.6719 32.8086C33.9788 32.8086 33.9785 32.8084 33.9785 32.1221C33.9785 31.4428 33.9789 31.4424 34.6514 31.4424ZM21.335 17.6592C18.6308 17.6457 16.4074 19.8427 16.3936 22.5401C16.3868 25.2513 18.5486 27.4199 21.2598 27.4199C23.8267 27.5432 26.2227 25.3059 26.209 22.5742C26.1952 19.8838 24.0116 17.6732 21.335 17.6592ZM35.2764 13.3555C31.4944 13.328 28.3097 16.5275 28.3096 20.3438C28.3098 24.2903 31.4254 27.3993 35.3926 27.4063C39.195 27.4129 42.3593 24.2489 42.373 20.4326C42.3798 16.5068 39.2434 13.3833 35.2764 13.3555ZM27.5332 23.6729C27.2174 25.1895 26.5034 26.3975 25.3506 27.3926H30.5537C29.2222 26.4248 28.247 25.2034 27.5332 23.6729ZM21.4316 19.0049C23.36 19.0396 24.9247 20.6662 24.8906 22.6221C24.8632 24.5576 23.25 26.1229 21.2939 26.1026C19.283 26.0819 17.711 24.5031 17.7383 22.5196C17.7658 20.5016 19.3656 18.9706 21.4316 19.0049ZM35.2969 15.1338C38.2275 15.1204 40.6161 17.4815 40.623 20.4053C40.6299 23.2331 38.2476 25.6491 35.4199 25.6699C32.4823 25.6904 30.0596 23.3495 30.0459 20.4805C30.0324 17.536 32.3798 15.1475 35.2969 15.1338ZM21.3418 20.3916C20.1408 20.3781 19.1525 21.3255 19.1387 22.5059C19.1182 23.7138 20.0861 24.7089 21.2871 24.7158C22.4744 24.7224 23.456 23.7684 23.4697 22.5811C23.4834 21.3801 22.529 20.4056 21.3418 20.3916ZM35.3516 16.541C33.2032 16.5342 31.4601 18.2434 31.46 20.3711C31.4601 22.5332 33.169 24.2559 35.3311 24.2559C37.4586 24.2625 39.2089 22.5261 39.2227 20.4121C39.2363 18.3051 37.4791 16.555 35.3516 16.541Z" fill="white"/>
</svg>
